<svg width="119" height="28" viewBox="0 0 119 28" fill="none" xmlns="http://www.w3.org/2000/svg">
<path d="M56.7095 25.9952V1.38742C56.7095 0.944518 57.0638 0.60791 57.489 0.60791H59.9693C60.4122 0.60791 60.7488 0.962234 60.7488 1.38742V25.9775C60.7488 26.4204 60.3944 26.757 59.9693 26.757H57.489C57.0638 26.7747 56.7095 26.4204 56.7095 25.9952ZM15.0233 0.60791H12.6316C12.0469 0.60791 11.5332 0.944518 11.2851 1.476L0.0530608 25.9598C-0.124101 26.3318 0.159358 26.7747 0.566831 26.7747H3.18883C3.8089 26.7747 4.3581 26.4204 4.60612 25.8535L13.5705 5.83419C13.6768 5.60388 13.9957 5.60388 14.102 5.83419L23.0664 25.8535C23.3144 26.4204 23.8814 26.7747 24.4837 26.7747H27.0703C27.4955 26.7747 27.7612 26.3496 27.584 25.9598L16.3697 1.476C16.1217 0.944518 15.6079 0.60791 15.0233 0.60791ZM44.8573 15.3655C44.7333 15.2061 44.8396 14.958 45.0345 14.958C49.9773 14.6391 52.9714 11.6628 52.9714 7.78297C52.9714 3.56652 49.623 0.661059 44.1133 0.661059H32.084C31.6233 0.661059 31.2513 1.0331 31.2513 1.49372V25.9775C31.2513 26.4381 31.6233 26.8102 32.084 26.8102H34.5288C34.9363 26.8102 35.2552 26.4913 35.2552 26.0838L35.2906 4.57634C35.2906 4.34603 35.4677 4.16887 35.6981 4.16887L44.0955 4.18658C47.125 4.18658 48.7726 5.47987 48.7726 7.72982C48.7726 9.92663 47.125 11.3971 44.0955 11.3971H40.6409C40.1803 11.3971 39.8082 11.7691 39.8082 12.2297V14.1608C39.8082 14.71 39.9854 15.2592 40.3043 15.7021L47.8691 25.9775C48.2411 26.4736 48.8258 26.7747 49.4458 26.7747H52.6348C53.0422 26.7747 53.2725 26.2964 53.0245 25.9775L44.8573 15.3655Z" fill="#1D1E3D"/>
<path d="M79.9355 26.9343H77.4376C76.9947 26.9343 76.6226 26.5623 76.6226 26.1194V5.83431C76.6226 5.58629 76.3746 5.40912 76.1266 5.4977L72.1758 7.0213C71.7507 7.18074 71.29 6.86185 71.29 6.41895V4.52331C71.29 4.00954 71.6089 3.56664 72.0873 3.40719L79.7761 0.696615C80.2544 0.537169 80.7505 0.873776 80.7505 1.38755V26.1194C80.7505 26.58 80.3785 26.9343 79.9355 26.9343ZM96.4825 0.661182C89.1834 0.661182 83.2662 6.57839 83.2662 13.8775C83.2662 21.1765 89.1834 27.076 96.4825 27.076C103.782 27.076 109.681 21.1588 109.681 13.8775C109.681 6.59611 103.782 0.661182 96.4825 0.661182ZM96.4825 23.1253C91.3802 23.1253 87.2346 18.9797 87.2346 13.8775C87.2346 8.7752 91.3802 4.62961 96.4825 4.62961C101.585 4.62961 105.73 8.7752 105.73 13.8775C105.73 18.9797 101.585 23.1253 96.4825 23.1253ZM118.893 4.84221C118.893 2.48595 116.945 0.590317 114.571 0.678898C112.427 0.767479 110.655 2.5391 110.567 4.68276C110.478 7.05673 112.374 9.00551 114.73 9.00551C114.925 9.00551 115.102 8.9878 115.279 8.97008C115.386 8.95236 115.457 9.07638 115.403 9.16496L113.348 12.6196C113.242 12.7791 113.366 12.9917 113.561 12.9917L114.447 13.0094C114.677 13.0094 114.907 12.8854 115.014 12.6905L118.344 6.89728C118.699 6.27722 118.893 5.58629 118.893 4.84221ZM112.126 4.84221C112.126 3.40719 113.295 2.25564 114.712 2.25564C116.147 2.25564 117.317 3.42491 117.317 4.84221C117.317 6.27722 116.147 7.44649 114.712 7.44649C113.295 7.42877 112.126 6.27722 112.126 4.84221Z" fill="#FBBB21"/>
</svg>
