<svg width="120" height="149" viewBox="0 0 120 149" fill="none" xmlns="http://www.w3.org/2000/svg">
<path d="M97.7738 67.0112V116.664C97.7738 117.157 97.6907 117.651 97.6075 118.062C96.9419 121.432 93.9468 123.981 90.2862 123.981H18.4877C14.4111 123.981 11 120.692 11 116.664V56.8996C11 53.1181 14.0783 50.0764 17.9053 50.0764H83.2976C87.0415 50.0764 90.1198 53.1182 90.1198 56.8176V59.6125H90.2862C92.0333 59.6125 93.6972 60.2702 94.9451 61.2567C96.6923 62.6542 97.7738 64.7094 97.7738 67.0112Z" fill="#520CE9"/>
<path d="M97.7741 88.7137V105.895H79.7205C74.8951 105.895 70.9849 102.031 70.9849 97.2633C70.9849 94.8793 71.9832 92.7418 73.5639 91.1799C75.1447 89.618 77.3078 88.6316 79.7205 88.6316H97.7741V88.7137Z" fill="#3C09AA"/>
<path d="M95.0283 61.3391H19.4859C18.5708 61.3391 17.822 60.5992 17.822 59.6949C17.822 58.7906 18.5708 58.0508 19.4859 58.0508H90.2861V59.6949H90.4525C92.1165 59.6949 93.7804 60.2704 95.0283 61.3391Z" fill="#3C09AA"/>
<path d="M100.02 101.209H79.8035C74.9781 101.209 71.0679 97.3456 71.0679 92.5775C71.0679 87.8095 74.9781 83.9458 79.8035 83.9458H100.02V101.209Z" fill="#6625F4"/>
<path d="M79.6369 96.1126C81.7505 96.1126 83.4639 94.4196 83.4639 92.3312C83.4639 90.2427 81.7505 88.5496 79.6369 88.5496C77.5233 88.5496 75.8098 90.2427 75.8098 92.3312C75.8098 94.4196 77.5233 96.1126 79.6369 96.1126Z" fill="#CCB6FB"/>
<path d="M32.3031 59.3658C30.3064 55.8309 29.1416 51.7207 29.1416 47.3637C29.1416 33.7996 40.2899 22.7837 54.0173 22.7837C67.7448 22.7837 78.8931 33.7996 78.8931 47.3637C78.8931 51.8851 77.6451 55.7487 75.5652 59.3658" fill="#F7931A"/>
<path d="M59.4251 46.7881C60.8394 46.0482 62.0041 44.8153 62.0041 42.5957V42.5134C62.0041 41.1981 61.5882 40.0472 60.673 39.2251C59.8411 38.403 58.6763 37.8276 57.1788 37.6632V34.7037C57.1788 33.7994 56.43 33.1418 55.5981 33.1418C54.6829 33.1418 54.0173 33.8816 54.0173 34.7037V37.4989H52.603V34.7037C52.603 33.7994 51.8542 33.1418 51.0223 33.1418C50.1071 33.1418 49.4415 33.8816 49.4415 34.7037V37.4989H48.5264C47.2784 37.4989 46.3633 38.4852 46.3633 39.6361V54.8444C46.3633 56.0775 47.3616 56.9819 48.5264 56.9819H49.4415V58.0506H52.603V56.9819H54.0173V58.0506H57.1788V56.8996C60.8395 56.5708 63.0857 54.7623 63.0857 51.6384V51.5562C63.0857 49.0077 61.6714 47.6924 59.4251 46.7881ZM50.5231 41.2803H54.8493C56.6796 41.2803 57.678 42.0203 57.678 43.2534V43.3354C57.678 44.8152 56.43 45.3906 54.5165 45.3906H50.5231V41.2803ZM58.7596 51.1451C58.7596 52.6248 57.5948 53.2826 55.6812 53.2826H50.5231V49.0079H55.5149C57.7612 49.0079 58.7596 49.7476 58.7596 51.1451Z" fill="white"/>
<path d="M49.52 82.5483C49.0208 82.5483 48.5217 82.3018 48.1889 81.8908C47.6897 81.1509 47.7729 80.1644 48.5217 79.589L60.0027 71.3683C60.2523 71.2038 60.6684 71.0393 61.0012 71.0393H78.2228C79.1379 71.0393 79.8867 71.7792 79.8867 72.6834C79.8867 73.5877 79.1379 74.3276 78.2228 74.3276H61.5835L50.5184 82.3018C50.1856 82.384 49.8528 82.5483 49.52 82.5483Z" fill="#CCB6FB"/>
<path d="M55.51 96.4413C55.51 97.3455 54.7612 98.0854 53.8461 98.0854H40.701L23.7289 114.445C23.3961 114.773 22.9801 114.938 22.5641 114.938H11.1663V111.65H21.8986L38.8707 95.2902C39.2035 94.9614 39.6194 94.7971 40.0354 94.7971H53.8461C54.7612 94.7971 55.51 95.537 55.51 96.4413Z" fill="#CCB6FB"/>
<path d="M97.7738 114.938V116.664C97.7738 117.157 97.6906 117.651 97.6074 118.062C97.441 118.144 97.3578 118.144 97.1914 118.144H57.0907C56.7579 118.144 56.4252 118.062 56.0924 117.815L49.6863 113.211L48.6879 112.472C47.9391 111.978 47.7727 110.91 48.3551 110.17C48.3551 110.088 48.4383 110.088 48.5215 110.005C49.1039 109.43 50.019 109.348 50.6846 109.841L51.9326 110.745L57.59 114.773H97.1082C97.441 114.856 97.6074 114.938 97.7738 114.938Z" fill="#CCB6FB"/>
<path d="M57.9227 91.5908C55.7596 91.5908 53.9293 92.9885 53.2637 94.797C53.0141 95.2903 52.9309 95.8656 52.9309 96.5232C52.9309 97.0987 53.0141 97.5921 53.1805 98.0853C53.8461 100.058 55.7596 101.456 57.9227 101.456C60.6682 101.456 62.9145 99.2361 62.9145 96.5232C62.9145 93.8104 60.6682 91.5908 57.9227 91.5908ZM57.9227 98.1674C57.0075 98.1674 56.2588 97.4275 56.2588 96.5232C56.2588 95.619 57.0075 94.8791 57.9227 94.8791C58.8379 94.8791 59.5866 95.619 59.5866 96.5232C59.5866 97.4275 58.8379 98.1674 57.9227 98.1674Z" fill="#CCB6FB"/>
<path d="M30.9672 74.5741C30.9672 75.4784 30.2184 76.2182 29.3033 76.2182H11.0833V72.9299H29.3033C30.2184 72.9299 30.9672 73.6698 30.9672 74.5741Z" fill="#CCB6FB"/>
<path d="M32.6312 69.7239C30.4681 69.7239 28.6377 71.0391 27.9721 72.9299C27.7225 73.4231 27.6394 74.0809 27.6394 74.6563C27.6394 75.2318 27.7225 75.7249 27.8889 76.2182C28.5545 78.1911 30.4681 79.5887 32.6312 79.5887C35.3767 79.5887 37.623 77.3691 37.623 74.6563C37.623 71.9435 35.3767 69.7239 32.6312 69.7239ZM32.6312 76.3004C31.716 76.3004 30.9673 75.5606 30.9673 74.6563C30.9673 73.752 31.716 73.0122 32.6312 73.0122C33.5463 73.0122 34.2951 73.752 34.2951 74.6563C34.2951 75.5606 33.5463 76.3004 32.6312 76.3004Z" fill="#CCB6FB"/>
<path d="M21.15 89.4537C21.15 90.358 20.4012 91.0979 19.4861 91.0979H11.0833V87.8096H19.4861C20.4012 87.8096 21.15 88.5494 21.15 89.4537Z" fill="#CCB6FB"/>
<path d="M23.5626 84.6033C21.3995 84.6033 19.5691 85.9187 18.9036 87.8095C18.654 88.3027 18.5708 88.878 18.5708 89.5357C18.5708 90.1111 18.654 90.6045 18.8204 91.0978C19.486 93.0707 21.3163 94.4681 23.5626 94.4681C26.3081 94.4681 28.5544 92.2485 28.5544 89.5357C28.5544 86.8229 26.3081 84.6033 23.5626 84.6033ZM23.5626 91.1798C22.6474 91.1798 21.8987 90.44 21.8987 89.5357C21.8987 88.6314 22.6474 87.8916 23.5626 87.8916C24.4777 87.8916 25.2265 88.6314 25.2265 89.5357C25.2265 90.44 24.4777 91.1798 23.5626 91.1798Z" fill="#CCB6FB"/>
<path d="M51.4335 81.4797C51.1007 80.411 50.3519 79.4244 49.4368 78.8489C48.6048 78.3557 47.6896 78.0269 46.6912 78.0269C43.9458 78.0269 41.6995 80.2464 41.6995 82.9593C41.6995 85.6721 43.9458 87.8917 46.6912 87.8917C49.4367 87.8917 51.683 85.6721 51.683 82.9593C51.683 82.466 51.5999 81.973 51.4335 81.4797ZM46.6912 84.6034C45.7761 84.6034 45.0273 83.8636 45.0273 82.9593C45.0273 82.055 45.7761 81.3151 46.6912 81.3151C47.6064 81.3151 48.3552 82.055 48.3552 82.9593C48.3552 83.8636 47.6064 84.6034 46.6912 84.6034Z" fill="#CCB6FB"/>
<path d="M82.1329 67.9155C80.053 67.9155 78.3058 69.1486 77.4738 70.9571C77.2243 71.5326 77.0579 72.1903 77.0579 72.848C77.0579 73.3412 77.1411 73.7522 77.2243 74.2454C77.8067 76.3006 79.7201 77.7804 82.0496 77.7804C84.7951 77.7804 87.0414 75.5608 87.0414 72.848C87.1246 70.1351 84.8784 67.9155 82.1329 67.9155ZM82.1329 74.4921C81.2178 74.4921 80.469 73.7522 80.469 72.848C80.469 71.9437 81.2178 71.2038 82.1329 71.2038C83.0481 71.2038 83.7969 71.9437 83.7969 72.848C83.7969 73.7522 83.0481 74.4921 82.1329 74.4921Z" fill="#CCB6FB"/>
<path d="M47.44 104.004C44.6945 104.004 42.4482 106.224 42.4482 108.937C42.4482 111.65 44.6945 113.869 47.44 113.869C48.272 113.869 49.104 113.623 49.8527 113.294C50.8511 112.801 51.683 111.896 52.099 110.828C52.3486 110.252 52.515 109.594 52.515 108.937C52.4318 106.224 50.1855 104.004 47.44 104.004ZM45.6929 108.937C45.6929 108.033 46.4417 107.293 47.3569 107.293C48.272 107.293 49.0208 108.033 49.0208 108.937C49.0208 109.43 48.8544 109.841 48.5216 110.088C48.1888 110.416 47.7728 110.581 47.3569 110.581C46.4417 110.581 45.6929 109.841 45.6929 108.937Z" fill="#CCB6FB"/>
<path d="M73.1525 23.9347C72.2373 23.9347 71.4885 23.1949 71.4885 22.2906V8.64414C71.4885 7.73986 72.2373 7 73.1525 7C74.0676 7 74.8164 7.73986 74.8164 8.64414V22.2906C74.8164 23.1949 74.0676 23.9347 73.1525 23.9347Z" fill="#E5E7EB"/>
<path d="M33.9669 23.9347C33.0517 23.9347 32.303 23.1949 32.303 22.2906V8.64414C32.303 7.73986 33.0517 7 33.9669 7C34.8821 7 35.6308 7.73986 35.6308 8.64414V22.2906C35.6308 23.1949 34.8821 23.9347 33.9669 23.9347Z" fill="#E5E7EB"/>
<path d="M54.267 16.5361C53.3518 16.5361 52.603 15.7962 52.603 14.892V8.64414C52.603 7.73986 53.3518 7 54.267 7C55.1821 7 55.9309 7.73986 55.9309 8.64414V14.892C55.9309 15.7962 55.1821 16.5361 54.267 16.5361Z" fill="#E5E7EB"/>
<rect x="58.9641" y="90.5354" width="52.0359" height="51.4647" rx="25.7323" fill="#16BDCA"/>
<path d="M75.6309 117.869L80.9642 123.202L94.2975 109.869" stroke="white" stroke-width="4" stroke-linecap="round" stroke-linejoin="round"/>
<rect x="58.9641" y="90.5354" width="52.0359" height="51.4647" rx="25.7323" stroke="white" stroke-width="4"/>
</svg>
